<mxfile host="Electron" modified="2024-02-26T04:06:34.077Z" agent="Mozilla/5.0 (Windows NT 10.0; Win64; x64) AppleWebKit/537.36 (KHTML, like Gecko) draw.io/23.1.5 Chrome/120.0.6099.109 Electron/28.1.0 Safari/537.36" etag="xZuFXlynw3GTxqc6WPOg" version="23.1.5" type="device">
  <diagram name="Page-1" id="p6OCSpyyWNKNPhMcDW-y">
    <mxGraphModel dx="1290" dy="621" grid="1" gridSize="10" guides="1" tooltips="1" connect="1" arrows="1" fold="1" page="1" pageScale="1" pageWidth="827" pageHeight="1169" math="0" shadow="0">
      <root>
        <mxCell id="0" />
        <mxCell id="1" parent="0" />
        <mxCell id="wmgjrkKw8_RgrnC8Zma2-1" value="frontend" style="whiteSpace=wrap;html=1;aspect=fixed;" parent="1" vertex="1">
          <mxGeometry x="240" y="280" width="80" height="80" as="geometry" />
        </mxCell>
        <mxCell id="wmgjrkKw8_RgrnC8Zma2-2" value="backend" style="whiteSpace=wrap;html=1;aspect=fixed;" parent="1" vertex="1">
          <mxGeometry x="480" y="280" width="80" height="80" as="geometry" />
        </mxCell>
        <mxCell id="wmgjrkKw8_RgrnC8Zma2-3" value="" style="endArrow=none;html=1;rounded=0;exitX=1;exitY=0.5;exitDx=0;exitDy=0;entryX=0;entryY=0.5;entryDx=0;entryDy=0;" parent="1" source="wmgjrkKw8_RgrnC8Zma2-1" target="wmgjrkKw8_RgrnC8Zma2-2" edge="1">
          <mxGeometry width="50" height="50" relative="1" as="geometry">
            <mxPoint x="390" y="350" as="sourcePoint" />
            <mxPoint x="440" y="300" as="targetPoint" />
          </mxGeometry>
        </mxCell>
        <mxCell id="wmgjrkKw8_RgrnC8Zma2-4" value="" style="whiteSpace=wrap;html=1;aspect=fixed;" parent="1" vertex="1">
          <mxGeometry x="30" y="640" width="750" height="750" as="geometry" />
        </mxCell>
        <mxCell id="wmgjrkKw8_RgrnC8Zma2-5" value="" style="endArrow=none;html=1;rounded=0;entryX=0.75;entryY=0;entryDx=0;entryDy=0;exitX=0.75;exitY=1;exitDx=0;exitDy=0;" parent="1" source="wmgjrkKw8_RgrnC8Zma2-4" target="wmgjrkKw8_RgrnC8Zma2-4" edge="1">
          <mxGeometry width="50" height="50" relative="1" as="geometry">
            <mxPoint x="320" y="1040" as="sourcePoint" />
            <mxPoint x="370" y="990" as="targetPoint" />
          </mxGeometry>
        </mxCell>
        <mxCell id="wmgjrkKw8_RgrnC8Zma2-6" value="" style="endArrow=none;html=1;rounded=0;exitX=-0.003;exitY=0.093;exitDx=0;exitDy=0;exitPerimeter=0;" parent="1" source="wmgjrkKw8_RgrnC8Zma2-4" edge="1">
          <mxGeometry width="50" height="50" relative="1" as="geometry">
            <mxPoint x="40" y="700" as="sourcePoint" />
            <mxPoint x="590" y="710" as="targetPoint" />
          </mxGeometry>
        </mxCell>
        <mxCell id="wmgjrkKw8_RgrnC8Zma2-7" value="" style="ellipse;whiteSpace=wrap;html=1;aspect=fixed;" parent="1" vertex="1">
          <mxGeometry x="40" y="650" width="50" height="50" as="geometry" />
        </mxCell>
        <mxCell id="wmgjrkKw8_RgrnC8Zma2-8" value="" style="shape=process;whiteSpace=wrap;html=1;backgroundOutline=1;" parent="1" vertex="1">
          <mxGeometry x="275" y="650" width="260" height="50" as="geometry" />
        </mxCell>
        <mxCell id="wmgjrkKw8_RgrnC8Zma2-9" value="" style="ellipse;shape=cloud;whiteSpace=wrap;html=1;" parent="1" vertex="1">
          <mxGeometry x="110" y="657.5" width="50" height="35" as="geometry" />
        </mxCell>
        <mxCell id="wmgjrkKw8_RgrnC8Zma2-10" value="" style="ellipse;shape=cloud;whiteSpace=wrap;html=1;" parent="1" vertex="1">
          <mxGeometry x="170" y="657.5" width="50" height="35" as="geometry" />
        </mxCell>
        <mxCell id="wmgjrkKw8_RgrnC8Zma2-11" value="&lt;font style=&quot;font-size: 24px;&quot;&gt;&lt;b&gt;&lt;u&gt;landings&lt;/u&gt;&lt;/b&gt;&lt;/font&gt;" style="rounded=1;whiteSpace=wrap;html=1;" parent="1" vertex="1">
          <mxGeometry x="610" y="657.5" width="140" height="190" as="geometry" />
        </mxCell>
        <mxCell id="wmgjrkKw8_RgrnC8Zma2-12" value="&lt;font style=&quot;font-size: 24px;&quot;&gt;&lt;b&gt;&lt;u&gt;takeofs&lt;/u&gt;&lt;/b&gt;&lt;/font&gt;" style="rounded=1;whiteSpace=wrap;html=1;" parent="1" vertex="1">
          <mxGeometry x="610" y="880" width="140" height="190" as="geometry" />
        </mxCell>
        <mxCell id="wmgjrkKw8_RgrnC8Zma2-44" value="" style="endArrow=none;html=1;rounded=0;entryX=0.5;entryY=1;entryDx=0;entryDy=0;exitX=0.5;exitY=0;exitDx=0;exitDy=0;" parent="1" source="wmgjrkKw8_RgrnC8Zma2-2" edge="1">
          <mxGeometry width="50" height="50" relative="1" as="geometry">
            <mxPoint x="320" y="330" as="sourcePoint" />
            <mxPoint x="520" y="170" as="targetPoint" />
          </mxGeometry>
        </mxCell>
        <mxCell id="wmgjrkKw8_RgrnC8Zma2-45" value="" style="shape=cylinder3;whiteSpace=wrap;html=1;boundedLbl=1;backgroundOutline=1;size=15;" parent="1" vertex="1">
          <mxGeometry x="460" y="60" width="60" height="80" as="geometry" />
        </mxCell>
        <mxCell id="wmgjrkKw8_RgrnC8Zma2-46" value="" style="shape=cylinder3;whiteSpace=wrap;html=1;boundedLbl=1;backgroundOutline=1;size=15;" parent="1" vertex="1">
          <mxGeometry x="515" y="60" width="60" height="80" as="geometry" />
        </mxCell>
        <mxCell id="wmgjrkKw8_RgrnC8Zma2-47" value="database" style="shape=cylinder3;whiteSpace=wrap;html=1;boundedLbl=1;backgroundOutline=1;size=15;" parent="1" vertex="1">
          <mxGeometry x="490" y="90" width="60" height="80" as="geometry" />
        </mxCell>
        <mxCell id="wmgjrkKw8_RgrnC8Zma2-48" value="plain" style="swimlane;whiteSpace=wrap;html=1;" parent="1" vertex="1">
          <mxGeometry x="55" y="420" width="115" height="175" as="geometry" />
        </mxCell>
        <mxCell id="wmgjrkKw8_RgrnC8Zma2-49" value="&lt;div style=&quot;text-align: left;&quot;&gt;&lt;span style=&quot;background-color: initial;&quot;&gt;- type&lt;/span&gt;&lt;/div&gt;&lt;div style=&quot;text-align: left;&quot;&gt;&lt;span style=&quot;background-color: initial;&quot;&gt;-location&lt;/span&gt;&lt;/div&gt;&lt;div style=&quot;text-align: left;&quot;&gt;&lt;span style=&quot;background-color: initial;&quot;&gt;-direction&lt;/span&gt;&lt;/div&gt;&lt;div style=&quot;text-align: left;&quot;&gt;&lt;span style=&quot;background-color: initial;&quot;&gt;-askLnding&lt;/span&gt;&lt;/div&gt;&lt;div style=&quot;text-align: left;&quot;&gt;&lt;span style=&quot;background-color: initial;&quot;&gt;&amp;nbsp; /takeoff()&lt;/span&gt;&lt;/div&gt;&lt;div style=&quot;text-align: left;&quot;&gt;&lt;span style=&quot;background-color: initial;&quot;&gt;-updateLocation()&lt;/span&gt;&lt;/div&gt;&lt;div style=&quot;text-align: left;&quot;&gt;&lt;span style=&quot;background-color: initial;&quot;&gt;&lt;br&gt;&lt;/span&gt;&lt;/div&gt;&lt;div style=&quot;text-align: left;&quot;&gt;&lt;span style=&quot;background-color: initial;&quot;&gt;&lt;br&gt;&lt;/span&gt;&lt;/div&gt;" style="text;html=1;align=center;verticalAlign=middle;resizable=0;points=[];autosize=1;strokeColor=none;fillColor=none;" parent="wmgjrkKw8_RgrnC8Zma2-48" vertex="1">
          <mxGeometry x="-5" y="45" width="120" height="130" as="geometry" />
        </mxCell>
        <mxCell id="wmgjrkKw8_RgrnC8Zma2-50" value="takeoff" style="swimlane;whiteSpace=wrap;html=1;" parent="1" vertex="1">
          <mxGeometry x="470" y="420" width="90" height="150" as="geometry" />
        </mxCell>
        <mxCell id="wmgjrkKw8_RgrnC8Zma2-51" value="landing" style="swimlane;whiteSpace=wrap;html=1;" parent="1" vertex="1">
          <mxGeometry x="335" y="420" width="115" height="150" as="geometry" />
        </mxCell>
        <mxCell id="wmgjrkKw8_RgrnC8Zma2-65" value="&lt;div style=&quot;border-color: var(--border-color); text-align: left;&quot;&gt;- plain&lt;/div&gt;&lt;div style=&quot;border-color: var(--border-color); text-align: left;&quot;&gt;&lt;span style=&quot;border-color: var(--border-color); background-color: initial;&quot;&gt;-toStation&lt;/span&gt;&lt;/div&gt;&lt;div style=&quot;border-color: var(--border-color); text-align: left;&quot;&gt;&lt;span style=&quot;border-color: var(--border-color); background-color: initial;&quot;&gt;-askLnding&lt;/span&gt;&lt;/div&gt;&lt;div style=&quot;border-color: var(--border-color); text-align: left;&quot;&gt;&lt;span style=&quot;border-color: var(--border-color); background-color: initial;&quot;&gt;&amp;nbsp; /takeoff()&lt;/span&gt;&lt;/div&gt;&lt;div style=&quot;border-color: var(--border-color); text-align: left;&quot;&gt;&lt;span style=&quot;border-color: var(--border-color); background-color: initial;&quot;&gt;-updateLocation()&lt;/span&gt;&lt;/div&gt;" style="text;html=1;align=center;verticalAlign=middle;resizable=0;points=[];autosize=1;strokeColor=none;fillColor=none;" parent="wmgjrkKw8_RgrnC8Zma2-51" vertex="1">
          <mxGeometry x="-5" y="43" width="120" height="90" as="geometry" />
        </mxCell>
        <mxCell id="wmgjrkKw8_RgrnC8Zma2-52" value="station" style="swimlane;whiteSpace=wrap;html=1;" parent="1" vertex="1">
          <mxGeometry x="210" y="420" width="107.5" height="150" as="geometry" />
        </mxCell>
        <mxCell id="wmgjrkKw8_RgrnC8Zma2-53" value="&lt;div style=&quot;border-color: var(--border-color); text-align: left;&quot;&gt;- st. number&lt;/div&gt;&lt;div style=&quot;border-color: var(--border-color); text-align: left;&quot;&gt;-nextStation&lt;/div&gt;&lt;div style=&quot;border-color: var(--border-color); text-align: left;&quot;&gt;-previousStation&lt;/div&gt;&lt;div style=&quot;border-color: var(--border-color); text-align: left;&quot;&gt;&lt;span style=&quot;border-color: var(--border-color); background-color: initial;&quot;&gt;-plaininstation&lt;/span&gt;&lt;/div&gt;&lt;div style=&quot;border-color: var(--border-color); text-align: left;&quot;&gt;&lt;span style=&quot;border-color: var(--border-color); background-color: initial;&quot;&gt;-permision()&lt;/span&gt;&lt;/div&gt;" style="text;html=1;align=center;verticalAlign=middle;resizable=0;points=[];autosize=1;strokeColor=none;fillColor=none;" parent="wmgjrkKw8_RgrnC8Zma2-52" vertex="1">
          <mxGeometry x="-2.5" y="30" width="110" height="90" as="geometry" />
        </mxCell>
        <mxCell id="wmgjrkKw8_RgrnC8Zma2-54" value="7" style="rounded=1;whiteSpace=wrap;html=1;" parent="1" vertex="1">
          <mxGeometry x="330" y="1090" width="120" height="100" as="geometry" />
        </mxCell>
        <mxCell id="wmgjrkKw8_RgrnC8Zma2-55" value="6" style="rounded=1;whiteSpace=wrap;html=1;" parent="1" vertex="1">
          <mxGeometry x="170" y="1090" width="120" height="100" as="geometry" />
        </mxCell>
        <mxCell id="wmgjrkKw8_RgrnC8Zma2-56" value="8" style="rounded=1;whiteSpace=wrap;html=1;" parent="1" vertex="1">
          <mxGeometry x="290" y="925" width="120" height="100" as="geometry" />
        </mxCell>
        <mxCell id="wmgjrkKw8_RgrnC8Zma2-57" value="5" style="rounded=1;whiteSpace=wrap;html=1;" parent="1" vertex="1">
          <mxGeometry x="120" y="925" width="120" height="100" as="geometry" />
        </mxCell>
        <mxCell id="wmgjrkKw8_RgrnC8Zma2-58" value="4" style="rounded=1;whiteSpace=wrap;html=1;" parent="1" vertex="1">
          <mxGeometry x="40" y="780" width="120" height="100" as="geometry" />
        </mxCell>
        <mxCell id="wmgjrkKw8_RgrnC8Zma2-59" value="3" style="rounded=1;whiteSpace=wrap;html=1;" parent="1" vertex="1">
          <mxGeometry x="180" y="780" width="120" height="100" as="geometry" />
        </mxCell>
        <mxCell id="wmgjrkKw8_RgrnC8Zma2-60" value="2" style="rounded=1;whiteSpace=wrap;html=1;" parent="1" vertex="1">
          <mxGeometry x="320" y="780" width="120" height="100" as="geometry" />
        </mxCell>
        <mxCell id="wmgjrkKw8_RgrnC8Zma2-62" value="1" style="rounded=1;whiteSpace=wrap;html=1;" parent="1" vertex="1">
          <mxGeometry x="460" y="780" width="120" height="100" as="geometry" />
        </mxCell>
        <mxCell id="wmgjrkKw8_RgrnC8Zma2-63" value="" style="rounded=1;whiteSpace=wrap;html=1;" parent="1" vertex="1">
          <mxGeometry x="170" y="1220" width="300" height="100" as="geometry" />
        </mxCell>
        <mxCell id="wmgjrkKw8_RgrnC8Zma2-64" style="edgeStyle=orthogonalEdgeStyle;rounded=0;orthogonalLoop=1;jettySize=auto;html=1;exitX=1;exitY=1;exitDx=0;exitDy=0;entryX=1;entryY=0.5;entryDx=0;entryDy=0;" parent="1" edge="1">
          <mxGeometry relative="1" as="geometry">
            <mxPoint x="297.0710678118653" y="747.0710678118653" as="sourcePoint" />
            <mxPoint x="300" y="740" as="targetPoint" />
          </mxGeometry>
        </mxCell>
        <mxCell id="wmgjrkKw8_RgrnC8Zma2-66" value="&lt;div style=&quot;border-color: var(--border-color); text-align: left;&quot;&gt;- plain&lt;/div&gt;&lt;div style=&quot;border-color: var(--border-color); text-align: left;&quot;&gt;-toStation&lt;/div&gt;&lt;div style=&quot;border-color: var(--border-color); text-align: left;&quot;&gt;&lt;span style=&quot;border-color: var(--border-color); background-color: initial;&quot;&gt;&lt;br&gt;&lt;/span&gt;&lt;/div&gt;" style="text;html=1;align=center;verticalAlign=middle;resizable=0;points=[];autosize=1;strokeColor=none;fillColor=none;" parent="1" vertex="1">
          <mxGeometry x="485" y="463" width="70" height="60" as="geometry" />
        </mxCell>
      </root>
    </mxGraphModel>
  </diagram>
</mxfile>
